<mxfile host="app.diagrams.net" modified="2020-11-03T13:30:41.761Z" agent="5.0 (X11; Linux x86_64) AppleWebKit/537.36 (KHTML, like Gecko) Chrome/86.0.4240.183 Safari/537.36" etag="oPID6KGgecn43VJozf1B" version="13.8.8" type="github">
  <diagram id="9XAOu8eu2SJiwrh9FwjY" name="Page-1">
    <mxGraphModel dx="1422" dy="805" grid="1" gridSize="10" guides="1" tooltips="1" connect="1" arrows="1" fold="1" page="1" pageScale="1" pageWidth="827" pageHeight="1169" math="0" shadow="0">
      <root>
        <mxCell id="0" />
        <mxCell id="1" parent="0" />
        <mxCell id="CyE2tW4dMEXC0W3QHYmf-1" value="PC" style="rounded=0;whiteSpace=wrap;html=1;" parent="1" vertex="1">
          <mxGeometry x="280" y="160" width="200" height="120" as="geometry" />
        </mxCell>
        <mxCell id="CyE2tW4dMEXC0W3QHYmf-2" value="" style="endArrow=none;html=1;entryX=0;entryY=0.25;entryDx=0;entryDy=0;" parent="1" target="CyE2tW4dMEXC0W3QHYmf-1" edge="1">
          <mxGeometry width="50" height="50" relative="1" as="geometry">
            <mxPoint x="240" y="190" as="sourcePoint" />
            <mxPoint x="270" y="190" as="targetPoint" />
          </mxGeometry>
        </mxCell>
        <mxCell id="CyE2tW4dMEXC0W3QHYmf-3" value="" style="endArrow=none;html=1;entryX=0;entryY=0.5;entryDx=0;entryDy=0;" parent="1" target="CyE2tW4dMEXC0W3QHYmf-1" edge="1">
          <mxGeometry width="50" height="50" relative="1" as="geometry">
            <mxPoint x="240" y="220" as="sourcePoint" />
            <mxPoint x="280" y="222.5" as="targetPoint" />
          </mxGeometry>
        </mxCell>
        <mxCell id="CyE2tW4dMEXC0W3QHYmf-4" value="" style="endArrow=none;html=1;entryX=0;entryY=0.75;entryDx=0;entryDy=0;" parent="1" target="CyE2tW4dMEXC0W3QHYmf-1" edge="1">
          <mxGeometry width="50" height="50" relative="1" as="geometry">
            <mxPoint x="240" y="250" as="sourcePoint" />
            <mxPoint x="290" y="232.5" as="targetPoint" />
          </mxGeometry>
        </mxCell>
        <mxCell id="CyE2tW4dMEXC0W3QHYmf-5" value="" style="endArrow=none;html=1;entryX=0.5;entryY=0;entryDx=0;entryDy=0;exitX=0.5;exitY=1;exitDx=0;exitDy=0;rounded=0;" parent="1" source="CyE2tW4dMEXC0W3QHYmf-1" target="CyE2tW4dMEXC0W3QHYmf-1" edge="1">
          <mxGeometry width="50" height="50" relative="1" as="geometry">
            <mxPoint x="260" y="243" as="sourcePoint" />
            <mxPoint x="300" y="242.5" as="targetPoint" />
            <Array as="points">
              <mxPoint x="380" y="320" />
              <mxPoint x="520" y="320" />
              <mxPoint x="520" y="120" />
              <mxPoint x="380" y="120" />
            </Array>
          </mxGeometry>
        </mxCell>
        <mxCell id="CyE2tW4dMEXC0W3QHYmf-6" value="" style="endArrow=none;html=1;entryX=0.5;entryY=1;entryDx=0;entryDy=0;exitX=0.5;exitY=0;exitDx=0;exitDy=0;" parent="1" source="CyE2tW4dMEXC0W3QHYmf-7" target="CyE2tW4dMEXC0W3QHYmf-1" edge="1">
          <mxGeometry width="50" height="50" relative="1" as="geometry">
            <mxPoint x="375" y="400" as="sourcePoint" />
            <mxPoint x="380" y="280" as="targetPoint" />
          </mxGeometry>
        </mxCell>
        <mxCell id="CyE2tW4dMEXC0W3QHYmf-7" value="IM" style="rounded=0;whiteSpace=wrap;html=1;" parent="1" vertex="1">
          <mxGeometry x="320" y="400" width="120" height="80" as="geometry" />
        </mxCell>
        <mxCell id="CyE2tW4dMEXC0W3QHYmf-8" value="" style="endArrow=none;html=1;" parent="1" edge="1">
          <mxGeometry width="50" height="50" relative="1" as="geometry">
            <mxPoint x="380" y="360" as="sourcePoint" />
            <mxPoint x="640" y="360" as="targetPoint" />
          </mxGeometry>
        </mxCell>
        <mxCell id="CyE2tW4dMEXC0W3QHYmf-9" value="" style="endArrow=none;html=1;exitX=0.5;exitY=1;exitDx=0;exitDy=0;rounded=0;" parent="1" source="CyE2tW4dMEXC0W3QHYmf-7" edge="1">
          <mxGeometry width="50" height="50" relative="1" as="geometry">
            <mxPoint x="376" y="462" as="sourcePoint" />
            <mxPoint x="640" y="520" as="targetPoint" />
            <Array as="points">
              <mxPoint x="380" y="520" />
            </Array>
          </mxGeometry>
        </mxCell>
        <mxCell id="CyE2tW4dMEXC0W3QHYmf-10" value="" style="rounded=0;whiteSpace=wrap;html=1;" parent="1" vertex="1">
          <mxGeometry x="920" y="160" width="600" height="880" as="geometry" />
        </mxCell>
        <mxCell id="CyE2tW4dMEXC0W3QHYmf-12" value="" style="endArrow=none;html=1;" parent="1" edge="1">
          <mxGeometry width="50" height="50" relative="1" as="geometry">
            <mxPoint x="1560" y="239.8" as="sourcePoint" />
            <mxPoint x="1520" y="239.8" as="targetPoint" />
          </mxGeometry>
        </mxCell>
        <mxCell id="CyE2tW4dMEXC0W3QHYmf-13" value="" style="endArrow=none;html=1;" parent="1" edge="1">
          <mxGeometry width="50" height="50" relative="1" as="geometry">
            <mxPoint x="1560" y="199.8" as="sourcePoint" />
            <mxPoint x="1520" y="199.8" as="targetPoint" />
          </mxGeometry>
        </mxCell>
        <mxCell id="CyE2tW4dMEXC0W3QHYmf-14" value="" style="endArrow=none;html=1;" parent="1" edge="1">
          <mxGeometry width="50" height="50" relative="1" as="geometry">
            <mxPoint x="1560" y="279.79999999999995" as="sourcePoint" />
            <mxPoint x="1520" y="279.79999999999995" as="targetPoint" />
          </mxGeometry>
        </mxCell>
        <mxCell id="CyE2tW4dMEXC0W3QHYmf-15" value="" style="endArrow=none;html=1;" parent="1" edge="1">
          <mxGeometry width="50" height="50" relative="1" as="geometry">
            <mxPoint x="1560" y="319.79999999999995" as="sourcePoint" />
            <mxPoint x="1520" y="319.79999999999995" as="targetPoint" />
          </mxGeometry>
        </mxCell>
        <mxCell id="CyE2tW4dMEXC0W3QHYmf-16" value="" style="endArrow=none;html=1;" parent="1" edge="1">
          <mxGeometry width="50" height="50" relative="1" as="geometry">
            <mxPoint x="1560" y="359.79999999999995" as="sourcePoint" />
            <mxPoint x="1520" y="359.79999999999995" as="targetPoint" />
          </mxGeometry>
        </mxCell>
        <mxCell id="CyE2tW4dMEXC0W3QHYmf-17" value="" style="endArrow=none;html=1;" parent="1" edge="1">
          <mxGeometry width="50" height="50" relative="1" as="geometry">
            <mxPoint x="1560" y="399.79999999999995" as="sourcePoint" />
            <mxPoint x="1520" y="399.79999999999995" as="targetPoint" />
          </mxGeometry>
        </mxCell>
        <mxCell id="CyE2tW4dMEXC0W3QHYmf-18" value="" style="endArrow=none;html=1;" parent="1" edge="1">
          <mxGeometry width="50" height="50" relative="1" as="geometry">
            <mxPoint x="1560" y="439.51" as="sourcePoint" />
            <mxPoint x="1520" y="439.51" as="targetPoint" />
          </mxGeometry>
        </mxCell>
        <mxCell id="CyE2tW4dMEXC0W3QHYmf-19" value="" style="endArrow=none;html=1;" parent="1" edge="1">
          <mxGeometry width="50" height="50" relative="1" as="geometry">
            <mxPoint x="1560" y="479.79999999999995" as="sourcePoint" />
            <mxPoint x="1520" y="479.79999999999995" as="targetPoint" />
          </mxGeometry>
        </mxCell>
        <mxCell id="CyE2tW4dMEXC0W3QHYmf-20" value="" style="endArrow=none;html=1;" parent="1" edge="1">
          <mxGeometry width="50" height="50" relative="1" as="geometry">
            <mxPoint x="1560" y="519.8000000000001" as="sourcePoint" />
            <mxPoint x="1520" y="519.8000000000001" as="targetPoint" />
          </mxGeometry>
        </mxCell>
        <mxCell id="CyE2tW4dMEXC0W3QHYmf-21" value="" style="endArrow=none;html=1;" parent="1" edge="1">
          <mxGeometry width="50" height="50" relative="1" as="geometry">
            <mxPoint x="1560" y="559.8000000000001" as="sourcePoint" />
            <mxPoint x="1520" y="559.8000000000001" as="targetPoint" />
          </mxGeometry>
        </mxCell>
        <mxCell id="CyE2tW4dMEXC0W3QHYmf-22" value="" style="endArrow=none;html=1;" parent="1" edge="1">
          <mxGeometry width="50" height="50" relative="1" as="geometry">
            <mxPoint x="1560" y="599.8000000000001" as="sourcePoint" />
            <mxPoint x="1520" y="599.8000000000001" as="targetPoint" />
          </mxGeometry>
        </mxCell>
        <mxCell id="CyE2tW4dMEXC0W3QHYmf-23" value="" style="endArrow=none;html=1;" parent="1" edge="1">
          <mxGeometry width="50" height="50" relative="1" as="geometry">
            <mxPoint x="1560" y="639.5100000000001" as="sourcePoint" />
            <mxPoint x="1520" y="639.5100000000001" as="targetPoint" />
          </mxGeometry>
        </mxCell>
        <mxCell id="CyE2tW4dMEXC0W3QHYmf-24" value="" style="endArrow=none;html=1;" parent="1" edge="1">
          <mxGeometry width="50" height="50" relative="1" as="geometry">
            <mxPoint x="1560" y="679.8000000000001" as="sourcePoint" />
            <mxPoint x="1520" y="679.8000000000001" as="targetPoint" />
          </mxGeometry>
        </mxCell>
        <mxCell id="CyE2tW4dMEXC0W3QHYmf-25" value="" style="endArrow=none;html=1;" parent="1" edge="1">
          <mxGeometry width="50" height="50" relative="1" as="geometry">
            <mxPoint x="1560" y="719.8000000000001" as="sourcePoint" />
            <mxPoint x="1520" y="719.8000000000001" as="targetPoint" />
          </mxGeometry>
        </mxCell>
        <mxCell id="CyE2tW4dMEXC0W3QHYmf-26" value="" style="endArrow=none;html=1;" parent="1" edge="1">
          <mxGeometry width="50" height="50" relative="1" as="geometry">
            <mxPoint x="1560" y="759.8000000000001" as="sourcePoint" />
            <mxPoint x="1520" y="759.8000000000001" as="targetPoint" />
          </mxGeometry>
        </mxCell>
        <mxCell id="CyE2tW4dMEXC0W3QHYmf-27" value="" style="endArrow=none;html=1;" parent="1" edge="1">
          <mxGeometry width="50" height="50" relative="1" as="geometry">
            <mxPoint x="1560" y="799.8000000000001" as="sourcePoint" />
            <mxPoint x="1520" y="799.8000000000001" as="targetPoint" />
          </mxGeometry>
        </mxCell>
        <mxCell id="CyE2tW4dMEXC0W3QHYmf-28" value="" style="endArrow=none;html=1;" parent="1" edge="1">
          <mxGeometry width="50" height="50" relative="1" as="geometry">
            <mxPoint x="1560" y="839.8000000000001" as="sourcePoint" />
            <mxPoint x="1520" y="839.8000000000001" as="targetPoint" />
          </mxGeometry>
        </mxCell>
        <mxCell id="CyE2tW4dMEXC0W3QHYmf-29" value="" style="endArrow=none;html=1;" parent="1" edge="1">
          <mxGeometry width="50" height="50" relative="1" as="geometry">
            <mxPoint x="1560" y="879.8000000000001" as="sourcePoint" />
            <mxPoint x="1520" y="879.8000000000001" as="targetPoint" />
          </mxGeometry>
        </mxCell>
        <mxCell id="CyE2tW4dMEXC0W3QHYmf-30" value="" style="endArrow=none;html=1;" parent="1" edge="1">
          <mxGeometry width="50" height="50" relative="1" as="geometry">
            <mxPoint x="1560" y="919.8000000000001" as="sourcePoint" />
            <mxPoint x="1520" y="919.8000000000001" as="targetPoint" />
          </mxGeometry>
        </mxCell>
        <mxCell id="CyE2tW4dMEXC0W3QHYmf-31" value="" style="endArrow=none;html=1;" parent="1" edge="1">
          <mxGeometry width="50" height="50" relative="1" as="geometry">
            <mxPoint x="1560" y="999.8000000000001" as="sourcePoint" />
            <mxPoint x="1520" y="999.8000000000001" as="targetPoint" />
          </mxGeometry>
        </mxCell>
        <mxCell id="CyE2tW4dMEXC0W3QHYmf-32" value="" style="endArrow=none;html=1;" parent="1" edge="1">
          <mxGeometry width="50" height="50" relative="1" as="geometry">
            <mxPoint x="1560" y="959.8000000000001" as="sourcePoint" />
            <mxPoint x="1520" y="959.8000000000001" as="targetPoint" />
          </mxGeometry>
        </mxCell>
        <mxCell id="CyE2tW4dMEXC0W3QHYmf-33" value="" style="endArrow=none;html=1;" parent="1" edge="1">
          <mxGeometry width="50" height="50" relative="1" as="geometry">
            <mxPoint x="920" y="200.0000000000001" as="sourcePoint" />
            <mxPoint x="880" y="200.0000000000001" as="targetPoint" />
          </mxGeometry>
        </mxCell>
        <mxCell id="CyE2tW4dMEXC0W3QHYmf-34" value="" style="endArrow=none;html=1;" parent="1" edge="1">
          <mxGeometry width="50" height="50" relative="1" as="geometry">
            <mxPoint x="920" y="240.0000000000001" as="sourcePoint" />
            <mxPoint x="880" y="240.0000000000001" as="targetPoint" />
          </mxGeometry>
        </mxCell>
        <mxCell id="v1u3cbGPdBswVKnUxT-Z-1" value="" style="ellipse;whiteSpace=wrap;html=1;" vertex="1" parent="1">
          <mxGeometry x="1110" y="400" width="120" height="80" as="geometry" />
        </mxCell>
      </root>
    </mxGraphModel>
  </diagram>
</mxfile>
